<svg xmlns="http://www.w3.org/2000/svg"
     width="461"
     height="192"
     viewBox="0 0 461 192"
     role="img"
     aria-labelledby="title">
  <title id="title">GNOME Extensions</title>

  <g fill="currentColor" shape-rendering="geometricPrecision">
    <path
      d="M70.05 4.942C63.537 4.942 62.315 14.219 65.98 14.219C69.645 14.219 76.564 4.942 70.05 4.942H70.05ZM59.235 13.07C61.185 13.19 63.335 5.625 59.66 6.1C55.985 6.575 57.284 12.95 59.235 13.07ZM50.295 17.77C51.682 17.17 50.475 11.185 48.115 12.815C45.755 14.445 48.908 18.381 50.295 17.77ZM54.195 14.643C55.847 14.306 55.937 7.531 52.992 8.747C50.047 9.963 52.545 14.981 54.195 14.643ZM62.83 29.803C63.123 32.041 61.188 33.146 59.293 31.703C53.26 27.11 69.281 24.819 68.225 18.543C67.348 13.335 51.368 14.938 49.548 23.088C48.316 28.6 54.618 36.248 61.195 36.248C64.43 36.248 68.162 33.328 68.86 29.626C69.393 26.804 62.586 27.926 62.83 29.802V29.803Z"
      transform="matrix(4.475475 0 0 4.471986 -187.530011 -6.100556)"
    />

    <path
      d="M59.33 40.247C57.5 40.297 56.054 40.954 54.99 42.217C53.89 43.53 53.335 45.344 53.335 47.657C53.335 49.964 53.889 51.774 54.99 53.087C56.091 54.4 57.615 55.057 59.553 55.057C61.491 55.057 63.019 54.401 64.119 53.087C65.219 51.773 65.769 49.965 65.769 47.657C65.769 45.343 65.219 43.529 64.119 42.217C63.019 40.905 61.495 40.247 59.553 40.247C59.477 40.247 59.403 40.245 59.33 40.247ZM59.466 42.913H59.553C60.508 42.913 61.248 43.326 61.773 44.155C62.298 44.984 62.561 46.153 62.561 47.657C62.561 49.155 62.297 50.317 61.773 51.144C61.249 51.971 60.5 52.4 59.553 52.4C58.603 52.4 57.869 51.983 57.345 51.154C56.821 50.325 56.557 49.154 56.557 47.667C56.557 46.163 56.821 44.993 57.345 44.165C57.852 43.362 58.558 42.948 59.465 42.923L59.466 42.913ZM38.662 53.718C37.05 55.072 34.662 55.058 33.662 55.058C31.649 55.058 30.054 54.395 28.878 53.058C27.702 51.721 27.113 49.922 27.113 47.646C27.113 45.346 27.713 43.546 28.91 42.216C30.107 40.886 31.75 40.236 33.832 40.236C34.636 40.236 35.405 40.336 36.139 40.504C36.867 40.678 37.569 40.945 38.228 41.298L37.388 43.778C37.01 43.569 36.616 43.389 36.211 43.24C35.547 43.017 34.881 42.905 34.211 42.905C32.971 42.905 32.011 43.305 31.337 44.138C30.667 44.954 30.333 46.124 30.333 47.638C30.333 49.138 30.657 50.315 31.303 51.138C31.949 51.961 32.923 52.371 34.063 52.371C35.221 52.371 35.938 52.079 36.32 51.771V49.3H33.812V46.833H38.669M67.839 40.483H71.806L74.558 49.395L77.328 40.483H80.681L82.196 54.758H79.25L78.35 45.832L75.565 54.802H73.6L70.815 45.53L69.915 54.76H66.92L68.435 40.485M84.3 40.505H92.7V43.287H87.406V46.247H91.476V48.727H87.406V51.997H92.878V54.779H84.278V40.505M40.762 40.505H42.728L48.941 49.085V40.505H51.593V54.78H49.627L43.414 46.2V54.78H40.762V40.505"
      transform="matrix(3.983882 0 0 3.980568 35.985007 -95.162129)"
    />

    <path
      d="M419.45 66H421.37V57.285H424.73V55.59H416.12V57.285H419.45ZM426.08 66H427.94V58.26L427.655 58.47L430.7 64.395H432.185L435.14 58.47L434.975 58.29V66H436.835V55.59H434.975L431.075 63.225H431.99L427.985 55.59H426.08Z"
    />

    <path
      d="M155.212 175H179.496V169.176H161.92V159.504H178.092V153.628H161.92V144.788H179.496V138.912H155.212ZM182.512 175H189.636L196.656 164.6L208.148 149.728H200.712L193.952 159.764ZM199.932 175H207.524L196.552 159.764L190 149.728H182.408L192.236 163.3ZM221.98 175.364C223.748 175.364 225.568 175.052 227.232 174.48L225.88 169.748C225.152 170.06 224.216 170.216 223.436 170.216C221.044 170.216 219.536 168.812 219.536 166.68V142.396H212.984V167.044C212.984 172.192 216.364 175.364 221.98 175.364ZM209.5 155.032H225.932V149.728H209.5ZM244.236 175.52C247.252 175.52 250.424 174.948 253.18 173.804L251.724 169.176C249.696 170.008 247.46 170.476 245.328 170.476C239.868 170.476 236.956 167.46 236.956 161.584C236.956 156.852 238.932 154.356 242.468 154.356C245.744 154.356 247.616 156.436 247.616 160.18H236.072V164.236H253.596C253.752 163.196 253.856 161.636 253.856 160.44C253.856 153.576 249.644 149.208 242.936 149.208C235.396 149.208 230.352 154.616 230.352 162.468C230.352 170.58 235.604 175.52 244.236 175.52ZM276.476 175H283.132V159.452C283.132 153.16 279.596 149.312 273.876 149.312C270.236 149.312 266.856 150.924 264.516 153.784L265.504 157.84C267.168 156.072 269.248 155.084 271.588 155.084C274.812 155.084 276.476 156.904 276.476 160.336ZM259.836 175H266.44V154.2L264.568 149.728H259.836ZM298.42 175.52C305.388 175.52 309.496 172.504 309.496 167.408C309.496 157.944 295.196 161.168 295.196 156.904C295.196 155.344 296.964 154.408 300.084 154.408C302.164 154.408 304.66 154.824 307 155.5L308.352 150.508C306.012 149.676 303.048 149.208 300.188 149.208C292.96 149.208 288.748 152.172 288.748 157.32C288.748 166.732 302.892 163.144 302.892 167.772C302.892 169.384 301.176 170.372 298.316 170.372C295.872 170.372 292.544 169.696 289.892 168.656L288.384 173.596C291.296 174.792 294.988 175.52 298.42 175.52ZM315.06 175H321.664V149.728H315.06ZM318.388 145.1C320.884 145.1 322.496 143.488 322.496 140.992C322.496 138.496 320.884 136.884 318.388 136.884C315.944 136.884 314.332 138.496 314.332 140.992C314.332 143.488 315.944 145.1 318.388 145.1ZM340.176 175.52C348.132 175.52 353.54 170.112 353.54 162C353.54 154.252 348.6 149.208 340.956 149.208C332.948 149.208 327.644 154.616 327.644 162.78C327.644 170.476 332.532 175.52 340.176 175.52ZM340.748 169.956C336.848 169.956 334.352 166.94 334.352 162.208C334.352 157.684 336.64 154.824 340.384 154.824C344.284 154.824 346.78 157.892 346.78 162.624C346.78 167.148 344.492 169.956 340.748 169.956ZM376.108 175H382.764V159.452C382.764 153.16 379.228 149.312 373.508 149.312C369.868 149.312 366.488 150.924 364.148 153.784L365.136 157.84C366.8 156.072 368.88 155.084 371.22 155.084C374.444 155.084 376.108 156.904 376.108 160.336ZM359.468 175H366.072V154.2L364.2 149.728H359.468ZM398.052 175.52C405.02 175.52 409.128 172.504 409.128 167.408C409.128 157.944 394.828 161.168 394.828 156.904C394.828 155.344 396.596 154.408 399.716 154.408C401.796 154.408 404.292 154.824 406.632 155.5L407.984 150.508C405.644 149.676 402.68 149.208 399.82 149.208C392.592 149.208 388.38 152.172 388.38 157.32C388.38 166.732 402.524 163.144 402.524 167.772C402.524 169.384 400.808 170.372 397.948 170.372C395.504 170.372 392.176 169.696 389.524 168.656L388.016 173.596C390.928 174.792 394.62 175.52 398.052 175.52Z"
    />
  </g>
</svg>